#!OML:ASF I:\Actors\actors\Patient Classification 2\Patient 1\Session 1\actor1.ASF
:FULLY-SPECIFIED
:DEGREES
688
root -0.802938 18.6644 5.97879 2.82492 -3.90124 -1.92586
lowerback -1.5411 1.11873 -0.195067
upperback -3.3639 1.51352 1.07573
thorax -2.62188 0.776364 1.20123
lowerneck -10.3803 -2.46479 -3.67669
upperneck 26.9255 -3.55182 2.96245
head 10.4274 -1.67312 1.25767
rclavicle -4.30804e-015 1.4387e-014
rhumerus -51.9225 -4.98589 -84.6162
rradius 50.2613
rwrist 18.3357
rhand -6.23081 -28.6948
rfingers 7.12502
rthumb 19.6105 302.274
lclavicle -4.30804e-015 1.4387e-014
lhumerus -44.9435 -2.82977 91.2384
lradius 44.6732
lwrist -2.10782
lhand -3.39806 -26.9795
lfingers 7.12502
lthumb 22.3319 1.7499
rfemur 0 0 0
rtibia 0
rfoot 0 0
rtoes 0
lfemur -2.70098 -9.45723 -12.8295
ltibia 20.1326
lfoot -27.1126 19.2597
ltoes -53.801
689
root -0.796247 18.6632 5.97163 2.66207 -3.71426 -1.9794
lowerback -1.35346 1.08012 -0.028909
upperback -3.29441 1.46279 1.07258
thorax -2.65009 0.746572 1.10231
lowerneck -10.4529 -2.47868 -3.69293
upperneck 26.9675 -3.5645 2.95512
head 10.4579 -1.68043 1.2557
rclavicle 5.57839e-015 -2.08724e-015
rhumerus -51.5746 -4.84945 -84.6892
rradius 50.016
rwrist 18.4145
rhand -6.33308 -29.0023
rfingers 7.12502
rthumb 19.5121 301.957
lclavicle 5.57839e-015 -2.08724e-015
lhumerus -44.7491 -2.93524 91.424
lradius 44.2565
lwrist -2.43608
lhand -3.44761 -27.1323
lfingers 7.12502
lthumb 22.2843 1.60277
rfemur 0 0 0
rtibia 0
rfoot 0 0
rtoes 0
lfemur -2.59512 -9.64164 -12.7902
ltibia 20.1598
lfoot -27.1879 19.1339
ltoes -53.5718
690
root -0.797474 18.6635 5.96702 2.66056 -3.67992 -2.043
lowerback -1.36233 1.08931 0.0343021
upperback -3.25957 1.47518 1.088
thorax -2.60819 0.75124 1.08319
lowerneck -10.52 -2.48354 -3.75658
upperneck 27.0044 -3.57447 3.02252
head 10.4878 -1.68271 1.28892
rclavicle -2.06519e-014 -4.22417e-015
rhumerus -51.2683 -4.81784 -84.6899
rradius 49.7537
rwrist 18.6071
rhand -6.27202 -28.9699
rfingers 7.12502
rthumb 19.5708 301.995
lclavicle -2.06519e-014 -4.22417e-015
lhumerus -44.5127 -3.01848 91.5758
lradius 43.6897
lwrist -2.81618
lhand -3.52922 -27.1962
lfingers 7.12502
lthumb 22.206 1.54828
rfemur 0 0 0
rtibia 0
rfoot 0 0
rtoes 0
lfemur -2.62264 -9.59314 -12.6959
ltibia 20.1904
lfoot -27.1873 19.0283
ltoes -53.496
691
root -0.79694 18.6632 5.96361 2.65126 -3.67506 -2.02804
lowerback -1.39273 1.09732 0.0342773
upperback -3.22008 1.48506 1.07883
thorax -2.55028 0.755862 1.07474
lowerneck -10.5498 -2.47448 -3.79251
upperneck 26.9961 -3.56229 3.06015
head 10.4915 -1.67596 1.30969
rclavicle 5.89521e-015 4.91992e-015
rhumerus -50.9654 -4.75413 -84.6736
rradius 49.3868
rwrist 18.7728
rhand -6.39241 -28.6843
rfingers 7.12502
rthumb 19.4551 302.269
lclavicle 5.89521e-015 4.91992e-015
lhumerus -44.2771 -3.01504 91.6573
lradius 43.069
lwrist -3.30902
lhand -3.49756 -27.1792
lfingers 7.12502
lthumb 22.2364 1.56158
rfemur 0 0 0
rtibia 0
rfoot 0 0
rtoes 0
lfemur -2.63991 -9.53423 -12.7085
ltibia 20.2195
lfoot -27.1658 19.0003
ltoes -53.537
692
root -0.794829 18.663 5.96055 2.63658 -3.66927 -2.02315
lowerback -1.43653 1.09574 0.0421629
upperback -3.17219 1.4822 1.08105
thorax -2.47607 0.754034 1.07407
lowerneck -10.6009 -2.4644 -3.82392
upperneck 26.9892 -3.54104 3.06868
head 10.499 -1.66775 1.32018
rclavicle -3.42282e-015 8.99501e-015
rhumerus -50.6908 -4.67388 -84.6247
rradius 48.9836
rwrist 18.9321
rhand -6.74787 -28.5424
rfingers 7.12502
rthumb 19.1133 302.377
lclavicle -3.42282e-015 8.99501e-015
lhumerus -44.0889 -2.96793 91.7249
lradius 42.4292
lwrist -3.91936
lhand -3.69627 -27.2786
lfingers 7.12502
lthumb 22.0456 1.48481
rfemur 0 0 0
rtibia 0
rfoot 0 0
rtoes 0
lfemur -2.64672 -9.55366 -12.7255
ltibia 20.2371
lfoot -27.1593 19.0318
ltoes -53.5756
